# xmcd
#
# Track frame offsets: 
#        150
#        10683
#        22148
#        35288
#        45164
#        57817
#        71868
#        83914
#        94953
#        108007
#        119965
#        131749
#        144940
#        158654
#        169528
#        183467
#        194189
#        208917
#        221894
#        232071
#        249370
#        263309
#        275503
#        289119
#
# Disc length: 4109 seconds
#
# Revision: 0
# Processed by: cddbd v1.5.2PL0 Copyright (c) Steve Scherf et al.
# Submitted via: ExactAudioCopy v1.1
#
DISCID=63100b18
DTITLE=Various Artists  - All-Time Country Favourites - Kings and Queens
DTITLE=Disc 1
DYEAR=2011
DGENRE=Country
TTITLE0=Loretta Lynn - To make a man ( feel like a man )
TTITLE1=Patsy Cline - Crazy Dreams
TTITLE2=Donna Fargo - Daddy
TTITLE3=Connie Smith - Cincinnati, Ohio
TTITLE4=Lynn Anderson - How can I unlove you
TTITLE5=Barbara Mandrell - ( If loving you is wrong )I don't want to b
TTITLE5=e right 
TTITLE6=Kitty Wells - Amigo's guitar
TTITLE7=Billy Jo Spears - If you want me
TTITLE8=Tammy Wynette - My man ( understands )
TTITLE9=Loretta Lynn - One's on the way
TTITLE10=Brenda Lee - As usual
TTITLE11=Tanya Tucker - San Antonio stroll
TTITLE12=Dolly Parton - The seeker
TTITLE13=Wanda Jackson - Tears will be the chaser for your wine
TTITLE14=Tanya Tucker - What's your Mama's name 
TTITLE15=Patsy Cline - Honky tonk merry-go-round
TTITLE16=Billie Jo Spears - I don't want to talk about it
TTITLE17=Janie Fricke - Your heart's not in it
TTITLE18=Lynn Anderson - What a man,my man is
TTITLE19=Crystal Gayle - You never miss a real good thing ( 'till he s
TTITLE19=ays goodbye )
TTITLE20=Bobbie Gentry - Raindrops keep fallin' on my head
TTITLE21=Dolly Parton - The bargain store
TTITLE22=Brenda Lee - Nobody Wins
TTITLE23=Tammy Wynette - Bedtime story
EXTD=
EXTT0=
EXTT1=
EXTT2=
EXTT3=
EXTT4=
EXTT5=
EXTT6=
EXTT7=
EXTT8=
EXTT9=
EXTT10=
EXTT11=
EXTT12=
EXTT13=
EXTT14=
EXTT15=
EXTT16=
EXTT17=
EXTT18=
EXTT19=
EXTT20=
EXTT21=
EXTT22=
EXTT23=
PLAYORDER=
